<?xml version="1.0" standalone="no"?>
<!DOCTYPE svg PUBLIC "-//W3C//DTD SVG 20010904//EN"
 "http://www.w3.org/TR/2001/REC-SVG-20010904/DTD/svg10.dtd">
<svg version="1.0" xmlns="http://www.w3.org/2000/svg"
 width="512.000000pt" height="512.000000pt" viewBox="0 0 512.000000 512.000000"
 preserveAspectRatio="xMidYMid meet">
<metadata>
Created by potrace 1.11, written by Peter Selinger 2001-2013
</metadata>
<g transform="translate(0.000000,512.000000) scale(0.100000,-0.100000)"
fill="#000000" stroke="none">
<path d="M1314 5086 l-34 -34 0 -606 0 -606 -606 0 -606 0 -34 -34 c-24 -24
-34 -43 -34 -65 0 -43 23 -85 55 -99 19 -9 182 -12 625 -12 l600 0 0 -480 0
-480 -590 0 c-648 0 -644 0 -674 -59 -20 -38 -20 -64 0 -102 30 -59 26 -59
674 -59 l590 0 0 -480 0 -480 -607 0 c-561 0 -610 -2 -629 -18 -55 -44 -59
-109 -10 -158 l34 -34 606 0 606 0 0 -606 0 -606 34 -34 c24 -24 43 -34 65
-34 43 0 85 23 99 55 9 19 12 182 12 625 l0 600 480 0 480 0 0 -590 c0 -648 0
-644 59 -674 38 -20 64 -20 102 0 59 30 59 26 59 674 l0 590 480 0 480 0 0
-600 c0 -443 3 -606 12 -625 14 -32 56 -55 99 -55 22 0 41 10 65 34 l34 34 0
606 0 606 606 0 606 0 34 34 c24 24 34 43 34 65 0 43 -23 85 -55 99 -19 9
-182 12 -625 12 l-600 0 0 480 0 480 590 0 c648 0 644 0 674 59 20 38 20 64 0
102 -30 59 -26 59 -674 59 l-590 0 0 480 0 480 600 0 c409 0 607 3 623 11 31
14 57 59 57 99 0 23 -10 42 -34 66 l-34 34 -606 0 -606 0 0 606 0 606 -34 34
c-49 49 -114 45 -158 -10 -16 -19 -18 -68 -18 -628 l0 -608 -480 0 -480 0 0
590 c0 488 -2 597 -14 625 -15 35 -59 65 -96 65 -37 0 -81 -30 -96 -65 -12
-28 -14 -137 -14 -625 l0 -590 -480 0 -480 0 0 600 c0 443 -3 606 -12 625 -14
32 -56 55 -99 55 -22 0 -41 -10 -65 -34z m1136 -1936 l0 -480 -480 0 -480 0 0
473 c0 261 3 477 7 480 3 4 219 7 480 7 l473 0 0 -480z m1178 -2 l2 -478 -480
0 -480 0 0 480 0 480 478 -2 477 -3 3 -477z m-1178 -1178 l0 -480 -477 2 -478
3 -3 478 -2 477 480 0 480 0 0 -480z m1178 3 l-3 -478 -477 -3 -478 -2 0 480
0 480 480 0 480 0 -2 -477z"/>
</g>
</svg>
